<svg width="201" height="57" viewBox="0 0 201 57" fill="none" xmlns="http://www.w3.org/2000/svg">
<path d="M200 28.5C200 31.924 197.544 35.4113 192.545 38.7629C187.583 42.0901 180.336 45.1256 171.291 47.6905C153.216 52.8164 128.187 56 100.5 56C72.813 56 47.7841 52.8164 29.7086 47.6905C20.664 45.1256 13.4172 42.0901 8.45467 38.7629C3.45571 35.4113 1 31.924 1 28.5C1 25.076 3.45571 21.5887 8.45467 18.2371C13.4172 14.9099 20.664 11.8744 29.7086 9.30952C47.7841 4.18364 72.813 1 100.5 1C128.187 1 153.216 4.18364 171.291 9.30952C180.336 11.8744 187.583 14.9099 192.545 18.2371C197.544 21.5887 200 25.076 200 28.5Z" stroke="white" stroke-width="2"/>
<path d="M38.128 20.736C39.904 20.736 41.336 20.984 42.424 21.48C42.552 21.544 42.632 21.608 42.664 21.672C42.696 21.72 42.728 21.84 42.76 22.032L43.048 25.2C43.048 25.248 43.008 25.28 42.928 25.296C42.848 25.312 42.792 25.288 42.76 25.224C42.344 23.912 41.72 22.912 40.888 22.224C40.072 21.536 39.056 21.192 37.84 21.192C36.656 21.192 35.608 21.488 34.696 22.08C33.784 22.656 33.072 23.496 32.56 24.6C32.048 25.688 31.792 26.96 31.792 28.416C31.792 29.856 32.064 31.144 32.608 32.28C33.152 33.4 33.896 34.272 34.84 34.896C35.784 35.52 36.848 35.832 38.032 35.832C39.2 35.832 40.168 35.528 40.936 34.92C41.72 34.296 42.408 33.312 43 31.968C43.016 31.92 43.064 31.904 43.144 31.92C43.224 31.936 43.264 31.96 43.264 31.992L42.952 34.848C42.92 35.04 42.888 35.168 42.856 35.232C42.824 35.28 42.744 35.336 42.616 35.4C41.176 35.992 39.64 36.288 38.008 36.288C36.312 36.288 34.792 35.968 33.448 35.328C32.104 34.672 31.056 33.76 30.304 32.592C29.552 31.408 29.176 30.056 29.176 28.536C29.176 27.032 29.56 25.688 30.328 24.504C31.112 23.32 32.184 22.4 33.544 21.744C34.904 21.072 36.432 20.736 38.128 20.736ZM44.9348 36C44.8868 36 44.8628 35.952 44.8628 35.856C44.8628 35.76 44.8868 35.712 44.9348 35.712C45.4788 35.712 45.8388 35.6 46.0148 35.376C46.2068 35.152 46.3028 34.712 46.3028 34.056V21.792C46.3028 21.232 46.2468 20.832 46.1348 20.592C46.0228 20.336 45.8388 20.208 45.5828 20.208C45.3428 20.208 45.0148 20.304 44.5988 20.496H44.5748C44.5268 20.496 44.4788 20.456 44.4308 20.376C44.3988 20.28 44.4068 20.224 44.4548 20.208L47.7908 18.624L47.9108 18.6C47.9748 18.6 48.0388 18.632 48.1028 18.696C48.1828 18.76 48.2228 18.816 48.2228 18.864V34.056C48.2228 34.712 48.3108 35.152 48.4868 35.376C48.6788 35.6 49.0468 35.712 49.5908 35.712C49.6548 35.712 49.6868 35.76 49.6868 35.856C49.6868 35.952 49.6548 36 49.5908 36C49.1908 36 48.8708 35.992 48.6308 35.976L47.2628 35.952L45.8948 35.976C45.6548 35.992 45.3348 36 44.9348 36ZM51.3908 36C51.3428 36 51.3188 35.952 51.3188 35.856C51.3188 35.76 51.3428 35.712 51.3908 35.712C51.9348 35.712 52.2948 35.6 52.4708 35.376C52.6628 35.152 52.7588 34.712 52.7588 34.056V30.48C52.7588 29.584 52.5908 28.92 52.2548 28.488C51.9188 28.056 51.3988 27.84 50.6948 27.84C50.1668 27.84 49.6388 27.992 49.1108 28.296C48.5828 28.584 48.1428 28.968 47.7908 29.448L47.6708 29.16C48.9508 27.368 50.3588 26.472 51.8948 26.472C52.7588 26.472 53.4388 26.736 53.9348 27.264C54.4308 27.792 54.6788 28.512 54.6788 29.424V34.056C54.6788 34.712 54.7668 35.152 54.9428 35.376C55.1348 35.6 55.5028 35.712 56.0468 35.712C56.1108 35.712 56.1428 35.76 56.1428 35.856C56.1428 35.952 56.1108 36 56.0468 36C55.6468 36 55.3268 35.992 55.0868 35.976L53.7188 35.952L52.3508 35.976C52.1108 35.992 51.7908 36 51.3908 36ZM62.02 36.288C61.044 36.288 60.196 36.072 59.476 35.64C58.772 35.208 58.228 34.64 57.844 33.936C57.476 33.232 57.292 32.472 57.292 31.656C57.292 30.712 57.524 29.848 57.988 29.064C58.452 28.28 59.084 27.664 59.884 27.216C60.7 26.752 61.604 26.52 62.596 26.52C63.556 26.52 64.292 26.752 64.804 27.216C65.332 27.68 65.596 28.368 65.596 29.28C65.596 29.52 65.572 29.696 65.524 29.808C65.492 29.92 65.428 29.976 65.332 29.976H63.364C63.444 27.992 62.9 27 61.732 27C61.012 27 60.444 27.328 60.028 27.984C59.628 28.64 59.428 29.528 59.428 30.648C59.428 32.056 59.756 33.176 60.412 34.008C61.068 34.824 61.996 35.232 63.196 35.232C63.644 35.232 64.02 35.176 64.324 35.064C64.628 34.952 65.028 34.768 65.524 34.512L65.572 34.488C65.604 34.488 65.636 34.52 65.668 34.584C65.716 34.648 65.724 34.696 65.692 34.728C65.116 35.272 64.532 35.672 63.94 35.928C63.348 36.168 62.708 36.288 62.02 36.288ZM58.708 29.592L64.036 29.496V29.976L58.732 30L58.708 29.592ZM71.8889 36.288C70.8489 36.288 69.9609 36.064 69.2249 35.616C68.5049 35.152 67.9689 34.56 67.6169 33.84C67.2649 33.104 67.0889 32.336 67.0889 31.536C67.0889 30.528 67.3609 29.648 67.9049 28.896C68.4489 28.128 69.1449 27.544 69.9929 27.144C70.8569 26.728 71.7289 26.52 72.6089 26.52C73.3609 26.52 74.0329 26.672 74.6249 26.976C75.2329 27.28 75.5369 27.688 75.5369 28.2C75.5369 28.472 75.4329 28.704 75.2249 28.896C75.0329 29.088 74.7529 29.184 74.3849 29.184C73.7609 29.184 73.3209 28.832 73.0649 28.128C72.9209 27.728 72.7529 27.448 72.5609 27.288C72.3849 27.112 72.1049 27.024 71.7209 27.024C70.9689 27.024 70.3689 27.368 69.9209 28.056C69.4889 28.728 69.2729 29.632 69.2729 30.768C69.2729 32.096 69.5769 33.176 70.1849 34.008C70.8089 34.824 71.7769 35.232 73.0889 35.232C73.5209 35.232 73.9129 35.176 74.2649 35.064C74.6329 34.952 75.0249 34.776 75.4409 34.536H75.4649C75.5129 34.536 75.5529 34.56 75.5849 34.608C75.6329 34.656 75.6409 34.696 75.6089 34.728C75.0169 35.256 74.4329 35.648 73.8569 35.904C73.2809 36.16 72.6249 36.288 71.8889 36.288ZM76.927 36C76.879 36 76.855 35.952 76.855 35.856C76.855 35.76 76.879 35.712 76.927 35.712C77.471 35.712 77.831 35.6 78.007 35.376C78.199 35.152 78.295 34.712 78.295 34.056V21.792C78.295 21.232 78.239 20.832 78.127 20.592C78.015 20.336 77.831 20.208 77.575 20.208C77.335 20.208 77.007 20.304 76.591 20.496H76.567C76.519 20.496 76.471 20.456 76.423 20.376C76.391 20.28 76.399 20.224 76.447 20.208L79.783 18.624L79.903 18.6C79.967 18.6 80.031 18.632 80.095 18.696C80.175 18.76 80.215 18.816 80.215 18.864V34.056C80.215 34.712 80.303 35.152 80.479 35.376C80.671 35.6 81.039 35.712 81.583 35.712C81.647 35.712 81.679 35.76 81.679 35.856C81.679 35.952 81.647 36 81.583 36C81.183 36 80.863 35.992 80.623 35.976L79.255 35.952L77.887 35.976C77.647 35.992 77.327 36 76.927 36ZM82.951 36C82.919 36 82.903 35.952 82.903 35.856C82.903 35.76 82.919 35.712 82.951 35.712C83.623 35.712 83.959 35.552 83.959 35.232C83.959 35.088 83.887 34.92 83.743 34.728L80.791 30.864L82.231 29.76L85.519 34.056C86.351 35.16 87.239 35.712 88.183 35.712C88.231 35.712 88.255 35.76 88.255 35.856C88.255 35.952 88.231 36 88.183 36C87.783 36 87.463 35.992 87.223 35.976L85.855 35.952L84.055 35.976C83.783 35.992 83.415 36 82.951 36ZM79.375 31.92L82.783 28.824C83.231 28.44 83.455 28.064 83.455 27.696C83.455 27.504 83.359 27.344 83.167 27.216C82.991 27.088 82.735 27.024 82.399 27.024C82.351 27.024 82.327 26.976 82.327 26.88C82.327 26.784 82.351 26.736 82.399 26.736C82.847 26.736 83.199 26.744 83.455 26.76L85.279 26.784L86.983 26.76C87.207 26.744 87.511 26.736 87.895 26.736C87.943 26.736 87.967 26.784 87.967 26.88C87.967 26.976 87.943 27.024 87.895 27.024C87.239 27.024 86.495 27.192 85.663 27.528C84.831 27.848 84.063 28.32 83.359 28.944L79.495 32.28L79.375 31.92ZM96.7891 21.552L97.4371 21.6V33.096C97.4371 33.944 97.5971 34.592 97.9171 35.04C98.2531 35.488 98.7411 35.712 99.3811 35.712C99.4291 35.712 99.4531 35.76 99.4531 35.856C99.4531 35.952 99.4291 36 99.3811 36C98.9651 36 98.6451 35.992 98.4211 35.976L97.1491 35.952L95.7331 35.976C95.4771 35.992 95.1091 36 94.6291 36C94.5811 36 94.5571 35.952 94.5571 35.856C94.5571 35.76 94.5811 35.712 94.6291 35.712C95.3171 35.712 95.8451 35.488 96.2131 35.04C96.5971 34.592 96.7891 33.944 96.7891 33.096V21.552ZM108.981 36.336C108.981 36.384 108.941 36.416 108.861 36.432C108.781 36.448 108.725 36.44 108.693 36.408L97.1491 22.968C96.6051 22.344 96.1251 21.912 95.7091 21.672C95.2931 21.416 94.8851 21.288 94.4851 21.288C94.4371 21.288 94.4131 21.24 94.4131 21.144C94.4131 21.048 94.4371 21 94.4851 21L95.4451 21.024C95.6371 21.04 95.9251 21.048 96.3091 21.048L97.8451 21.024C98.0371 21.008 98.2611 21 98.5171 21C98.6451 21 98.7411 21.032 98.8051 21.096C98.8691 21.16 98.9651 21.288 99.0931 21.48C99.3651 21.848 99.5651 22.104 99.6931 22.248L108.789 32.952L108.981 36.336ZM108.981 36.336L108.333 35.616V23.928C108.333 23.08 108.165 22.432 107.829 21.984C107.509 21.52 107.029 21.288 106.389 21.288C106.357 21.288 106.341 21.24 106.341 21.144C106.341 21.048 106.357 21 106.389 21L107.373 21.024C107.885 21.056 108.309 21.072 108.645 21.072C108.949 21.072 109.389 21.056 109.965 21.024L110.973 21C111.021 21 111.045 21.048 111.045 21.144C111.045 21.24 111.021 21.288 110.973 21.288C110.333 21.288 109.837 21.52 109.485 21.984C109.149 22.432 108.981 23.08 108.981 23.928V36.336ZM117.007 36.312C116.047 36.312 115.199 36.088 114.463 35.64C113.727 35.176 113.159 34.56 112.759 33.792C112.359 33.008 112.159 32.16 112.159 31.248C112.159 30.208 112.415 29.328 112.927 28.608C113.455 27.872 114.119 27.328 114.919 26.976C115.735 26.608 116.567 26.424 117.415 26.424C118.391 26.424 119.239 26.656 119.959 27.12C120.695 27.584 121.255 28.2 121.639 28.968C122.023 29.72 122.215 30.528 122.215 31.392C122.215 32.352 121.975 33.208 121.495 33.96C121.031 34.712 120.399 35.296 119.599 35.712C118.799 36.112 117.935 36.312 117.007 36.312ZM117.727 35.832C118.431 35.832 118.975 35.52 119.359 34.896C119.743 34.272 119.935 33.36 119.935 32.16C119.935 31.088 119.783 30.152 119.479 29.352C119.191 28.552 118.791 27.944 118.279 27.528C117.783 27.112 117.231 26.904 116.623 26.904C115.903 26.904 115.351 27.2 114.967 27.792C114.599 28.384 114.415 29.256 114.415 30.408C114.415 31.448 114.559 32.384 114.847 33.216C115.135 34.032 115.527 34.672 116.023 35.136C116.535 35.6 117.103 35.832 117.727 35.832ZM130.383 28.728C130.031 28.024 129.759 27.568 129.567 27.36C129.375 27.136 129.127 27.024 128.823 27.024C128.791 27.024 128.775 26.976 128.775 26.88C128.775 26.784 128.791 26.736 128.823 26.736C129.095 26.736 129.319 26.744 129.495 26.76L130.743 26.784L132.375 26.76C132.615 26.744 132.943 26.736 133.359 26.736C133.391 26.736 133.407 26.784 133.407 26.88C133.407 26.976 133.391 27.024 133.359 27.024C132.991 27.024 132.695 27.08 132.471 27.192C132.263 27.288 132.159 27.432 132.159 27.624C132.159 27.736 132.191 27.848 132.255 27.96L135.183 33.744L134.175 35.472L136.839 28.992C136.951 28.704 137.007 28.432 137.007 28.176C137.007 27.808 136.863 27.528 136.575 27.336C136.303 27.128 135.903 27.024 135.375 27.024C135.327 27.024 135.303 26.976 135.303 26.88C135.303 26.784 135.327 26.736 135.375 26.736C135.807 26.736 136.127 26.744 136.335 26.76L137.775 26.784L138.735 26.76C138.895 26.744 139.167 26.736 139.551 26.736C139.599 26.736 139.623 26.784 139.623 26.88C139.623 26.976 139.599 27.024 139.551 27.024C139.119 27.024 138.735 27.184 138.399 27.504C138.079 27.808 137.767 28.32 137.463 29.04L134.487 35.976C134.471 36.04 134.391 36.072 134.247 36.072C134.071 36.072 133.975 36.04 133.959 35.976L130.383 28.728ZM124.575 28.728C124.223 28.024 123.927 27.568 123.687 27.36C123.463 27.136 123.175 27.024 122.823 27.024C122.775 27.024 122.751 26.976 122.751 26.88C122.751 26.784 122.775 26.736 122.823 26.736C123.111 26.736 123.343 26.744 123.519 26.76L124.911 26.784L126.543 26.76C126.783 26.744 127.111 26.736 127.527 26.736C127.575 26.736 127.599 26.784 127.599 26.88C127.599 26.976 127.575 27.024 127.527 27.024C126.679 27.024 126.255 27.208 126.255 27.576C126.255 27.672 126.295 27.8 126.375 27.96L129.399 33.744L128.343 35.472L130.959 29.16L131.535 29.28L128.655 35.976C128.655 36.04 128.575 36.072 128.415 36.072C128.271 36.072 128.175 36.04 128.127 35.976L124.575 28.728Z" fill="white"/>
<g clip-path="url(#clip0_64_2)">
<path d="M166.125 29H146.875M166.125 29L157.875 35M166.125 29L157.875 23" stroke="white" stroke-width="2" stroke-linecap="round" stroke-linejoin="round"/>
</g>
<defs>
<clipPath id="clip0_64_2">
<rect width="24" height="33" fill="white" transform="matrix(0 1 -1 0 173 17)"/>
</clipPath>
</defs>
</svg>
